<svg width="52" height="34" viewBox="0 0 52 34" fill="none" xmlns="http://www.w3.org/2000/svg">
<path opacity="0.5" d="M15.9692 27.2144L15.8774 27.3037C14.3982 28.8201 12.6861 29.6237 10.9219 29.6237C7.23936 29.6237 4.56624 26.8442 4.56624 23.009C4.56624 19.1807 7.23936 16.3973 10.9219 16.3973C12.6861 16.3973 14.3982 17.2042 15.8774 18.7246L15.9692 18.8166L18.3375 15.9354L18.2742 15.8572C16.3046 13.5155 13.9414 12.3755 11.0362 12.3755C8.12088 12.3755 5.4559 13.3626 3.53526 15.1429C1.44844 17.0708 0.346649 19.7896 0.346649 23.009C0.346649 26.2268 1.44844 28.9524 3.53526 30.8808C5.4559 32.6692 8.12088 33.6509 11.0362 33.6509C13.9414 33.6509 16.3046 32.5116 18.2742 30.1689L18.3375 30.0962L15.9692 27.2144Z" fill="white"/>
<path opacity="0.5" d="M20.7306 33.2589H24.9144V12.7095H20.7306V33.2589Z" fill="white"/>
<path opacity="0.5" d="M41.3027 28.7904C40.1865 29.4742 39.1477 29.818 38.2149 29.818C36.8632 29.818 36.2523 29.1002 36.2523 27.5013V16.5977H40.5133V12.728H36.2523V6.33398L32.1516 8.54205V12.728H28.614V16.5977H32.1516V28.1969C32.1516 31.3571 34.0121 33.5159 36.7894 33.572C38.6752 33.6092 39.8121 33.044 40.5025 32.6308L40.5429 32.6006L41.5502 28.6383L41.3027 28.7904L41.3027 28.7904Z" fill="white"/>
<path opacity="0.5" d="M44.7679 33.2589H48.9545V12.7095H44.7679V33.2589Z" fill="white"/>
<path opacity="0.5" fill-rule="evenodd" clip-rule="evenodd" d="M51.4604 9.06323C47.6306 3.60509 41.2703 0.348633 34.7992 0.348633C28.3307 0.348633 21.9692 3.60509 18.1457 9.06323L17.9495 9.34407H22.7718L22.8253 9.28581C26.1075 5.87738 30.392 4.07486 34.7992 4.07486C39.2069 4.07486 43.4906 5.87738 46.7791 9.28581L46.8325 9.34407H51.6533L51.4604 9.06323Z" fill="#D9261C"/>
</svg>
