<svg width="32" height="32" viewBox="0 0 32 32" fill="none" xmlns="http://www.w3.org/2000/svg">
<path fill-rule="evenodd" clip-rule="evenodd" d="M20.0236 3.82685L21.5151 5.31015L23.5879 5.66814L24.5482 7.53975L26.4089 8.52074L26.7438 10.5974L28.2102 12.1054L27.887 14.1839L28.8157 16.0713L27.866 17.9483L28.1661 20.0303L26.6828 21.5218L26.3248 23.5946L24.4532 24.5549L23.4722 26.4156L21.3955 26.7505L19.8875 28.2169L17.809 27.8937L15.9216 28.8224L14.0446 27.8727L11.9626 28.1728L10.4711 26.6895L8.39833 26.3315L7.43803 24.4599L5.57733 23.4789L5.24243 21.4022L3.77603 19.8942L4.09923 17.8157L3.17053 15.9283L4.12023 14.0513L3.82013 11.9693L5.30343 10.4778L5.66143 8.40504L7.53303 7.44475L8.51403 5.58404L10.5907 5.24914L12.0987 3.78274L14.1772 4.10595L16.0646 3.17725L17.9416 4.12694L20.0236 3.82685V3.82685Z" stroke="#5C5E6B" stroke-width="1.5" stroke-miterlimit="22.9256" stroke-linecap="round" stroke-linejoin="round"/>
<path fill-rule="evenodd" clip-rule="evenodd" d="M15.9931 1.00684L18.1938 2.10513L20.6262 1.74073L22.3799 3.46523L24.8058 3.87033L25.9407 6.05233L28.1227 7.18724L28.5278 9.61313L30.2523 11.3668L29.8879 13.7992L30.9862 15.9999L29.8879 18.2006L30.2523 20.633L28.5278 22.3867L28.1227 24.8126L25.9407 25.9475L24.8058 28.1295L22.3799 28.5346L20.6262 30.2591L18.1938 29.8947L15.9931 30.993L13.7924 29.8947L11.36 30.2591L9.6063 28.5346L7.1804 28.1295L6.0455 25.9475L3.8635 24.8126L3.4584 22.3867L1.7339 20.633L2.0983 18.2006L1 15.9999L2.0983 13.7992L1.7339 11.3668L3.4584 9.61313L3.8635 7.18724L6.0455 6.05233L7.1804 3.87033L9.6063 3.46523L11.36 1.74073L13.7924 2.10513L15.9931 1.00684V1.00684Z" stroke="#5C5E6B" stroke-width="1.5" stroke-miterlimit="22.9256" stroke-linecap="round" stroke-linejoin="round"/>
<path d="M16.0384 8.05322C17.9957 8.05322 19.7879 8.76093 21.1727 9.93463L19.8876 11.1085C18.8286 10.274 17.4916 9.77593 16.0384 9.77593C14.3197 9.77593 12.7636 10.4725 11.6375 11.5987C10.5113 12.7249 9.81462 14.281 9.81462 15.9997C9.81462 17.7184 10.5113 19.2745 11.6375 20.4007C12.7636 21.5269 14.3197 22.2235 16.0384 22.2235C17.7572 22.2235 19.3133 21.5269 20.4394 20.4007C21.5656 19.2745 22.2623 17.7184 22.2623 15.9997C22.2623 15.8195 22.2545 15.6411 22.2395 15.4648L23.6887 13.8432C23.8817 14.529 23.985 15.2523 23.985 15.9997C23.985 18.194 23.0954 20.1807 21.6573 21.6186C20.2194 23.0567 18.2327 23.9462 16.0384 23.9462C13.8443 23.9462 11.8574 23.0567 10.4195 21.6186C8.98142 20.1807 8.09192 18.194 8.09192 15.9997C8.09192 13.8056 8.98142 11.8187 10.4195 10.3808C11.8574 8.94273 13.8443 8.05322 16.0384 8.05322Z" fill="#169C76"/>
<path fill-rule="evenodd" clip-rule="evenodd" d="M11.6718 12.847L16.1048 16.3607L23.6935 9.42871L24.5481 10.891L16.2488 20.1778L10.9122 14.4044L11.6718 12.847Z" fill="#169C76"/>
</svg>
