<svg width="52" height="53" viewBox="0 0 52 53" fill="none" xmlns="http://www.w3.org/2000/svg">
<path d="M4.00002 31.29H19.5569L17.3071 36.5048H15V38.243H36.9999V36.5048H34.6928L32.443 31.2897H47.9999C50.2089 31.2897 51.9999 29.733 51.9999 27.813V3.47667C51.9999 1.55664 50.2089 0 47.9999 0H4.00002C1.79056 0 0 1.55664 0 3.47667V27.813C0 29.7334 1.79056 31.29 4.00002 31.29ZM32.5567 36.5048H19.4428L21.693 31.2897H30.3068L32.5567 36.5048ZM49.9997 27.813C49.9997 28.7732 49.1046 29.5515 47.9999 29.5515H4.00002C2.89529 29.5515 1.99981 28.7732 1.99981 27.813V26.0748H50.0001V27.813H49.9997ZM1.99981 3.47667C1.99981 2.51648 2.89529 1.73816 4.00002 1.73816H47.9999C49.1046 1.73816 49.9997 2.51648 49.9997 3.47667V24.3363H1.99981V3.47667Z" fill="#00A975"/>
<path d="M1.9674 39.9814C1.41503 39.9814 0.967285 40.3706 0.967285 40.8507V51.2805C0.967285 51.7606 1.41503 52.1498 1.9674 52.1498H29.9672C30.5195 52.1498 30.9673 51.7606 30.9673 51.2805V40.8507C30.9673 40.3706 30.5195 39.9814 29.9672 39.9814H1.9674ZM28.9671 50.4116H2.96709V41.7196H28.9671V50.4116Z" fill="#00A975"/>
<path d="M4.96729 46.9348H6.96704V48.6731H4.96729V46.9348Z" fill="#00A975"/>
<path d="M24.9672 46.9348H26.9673V48.6731H24.9672V46.9348Z" fill="#00A975"/>
<path d="M4.96729 43.4583H6.96704V45.1968H4.96729V43.4583Z" fill="#00A975"/>
<path d="M8.96729 43.4583H10.9671V45.1968H8.96729V43.4583Z" fill="#00A975"/>
<path d="M12.9675 43.4583H14.9673V45.1968H12.9675V43.4583Z" fill="#00A975"/>
<path d="M16.967 43.4583H18.9673V45.1968H16.967V43.4583Z" fill="#00A975"/>
<path d="M20.9672 43.4583H22.9673V45.1968H20.9672V43.4583Z" fill="#00A975"/>
<path d="M24.9672 43.4583H26.9673V45.1968H24.9672V43.4583Z" fill="#00A975"/>
<path d="M8.96729 46.9348H22.9672V48.6731H8.96729V46.9348Z" fill="#00A975"/>
<path d="M41.9878 44.3271V47.8038C41.9878 50.204 44.2261 52.1498 46.9875 52.1498C49.749 52.1498 51.9877 50.204 51.9877 47.8038V44.3271C51.9877 41.9269 49.749 39.9814 46.9875 39.9814C44.2261 39.9814 41.9878 41.9269 41.9878 44.3271ZM49.9879 44.3271V47.8038C49.9879 49.2441 48.6446 50.4113 46.9875 50.4113C45.3308 50.4113 43.9876 49.2441 43.9876 47.8038V44.3271C43.993 43.2262 44.7933 42.2466 45.9878 41.8797V44.3271H47.9876V41.8797C49.1822 42.2466 49.9825 43.2262 49.9879 44.3271Z" fill="#00A975"/>
<path d="M31.7073 10.1752L21.7079 18.8663L20.2935 17.6372L30.2933 8.9458L31.7073 10.1752Z" fill="#00A975"/>
<path d="M26.7065 9.30627L20.7067 14.5209L19.2926 13.2915L25.2925 8.0769L26.7065 9.30627Z" fill="#00A975"/>
<path d="M32.7071 14.5211L26.7073 19.736L25.2932 18.5069L31.2926 13.292L32.7071 14.5211Z" fill="#00A975"/>
</svg>
