<svg width="63" height="63" viewBox="0 0 63 63" fill="none" xmlns="http://www.w3.org/2000/svg">
<g clip-path="url(#clip0)">
<path d="M37.9854 52.5C35.9589 52.5 34.3104 54.1485 34.3104 56.1751C34.3104 58.2016 35.9589 59.8501 37.9854 59.8501C40.012 59.8501 41.6605 58.2016 41.6605 56.1751C41.6605 54.1485 40.0109 52.5 37.9854 52.5ZM37.9854 57.7501C37.1171 57.7501 36.4104 57.0434 36.4104 56.1751C36.4104 55.3067 37.1171 54.6 37.9854 54.6C38.8538 54.6 39.5605 55.3067 39.5605 56.1751C39.5605 57.0434 38.8538 57.7501 37.9854 57.7501Z" fill="#00A975"/>
<path d="M42.7105 38.8496C45.0268 38.8496 46.9106 36.9659 46.9106 34.6495C46.9106 32.3332 45.0268 30.4495 42.7105 30.4495C40.3942 30.4495 38.5104 32.3332 38.5104 34.6495C38.5104 36.9659 40.3931 38.8496 42.7105 38.8496ZM42.7105 32.5495C43.8687 32.5495 44.8105 33.4914 44.8105 34.6495C44.8105 35.8077 43.8687 36.7496 42.7105 36.7496C41.5523 36.7496 40.6105 35.8077 40.6105 34.6495C40.6105 33.4914 41.5523 32.5495 42.7105 32.5495Z" fill="#00A975"/>
<path d="M17.5101 12.5993C17.7789 12.5993 18.0477 12.4964 18.2525 12.2916L20.3525 10.1916C20.7631 9.78101 20.7631 9.1174 20.3525 8.70684C19.942 8.29629 19.2783 8.29629 18.8678 8.70684L16.7678 10.8069C16.3572 11.2174 16.3572 11.881 16.7678 12.2916C16.9725 12.4964 17.2413 12.5993 17.5101 12.5993Z" fill="#00A975"/>
<path d="M55.3107 31.2349C55.3107 30.3109 54.9506 29.4425 54.2974 28.7894L53.7126 28.2046C54.7091 27.3226 55.3097 26.0468 55.3097 24.6744C55.3097 22.0693 53.1897 19.9493 50.5846 19.9493C50.3935 19.9493 50.2045 19.9682 50.0176 19.9913C50.0407 19.8034 50.0596 19.6165 50.0596 19.4243C50.0596 16.8192 47.9396 14.6992 45.3345 14.6992C45.1434 14.6992 44.9544 14.7181 44.7675 14.7412C44.7906 14.5533 44.8095 14.3664 44.8095 14.1742C44.8095 11.5691 42.6895 9.44916 40.0844 9.44916C39.8933 9.44916 39.7043 9.46806 39.5174 9.49116C39.5405 9.30321 39.5594 9.11631 39.5594 8.92415C39.5594 6.31906 37.4394 4.19908 34.8343 4.19908C33.4609 4.19908 32.1862 4.80073 31.3042 5.79615L30.4705 4.96244L26.5192 1.01122C25.17 -0.33805 22.9754 -0.33805 21.6283 1.01122L8.70044 13.939C7.35327 15.2883 7.35327 17.4818 8.70044 18.8311L12.6517 22.7823L17.8072 27.9379C16.3834 28.7527 15.4101 30.27 15.4101 32.0245C15.4101 33.6657 16.2532 35.1126 17.5279 35.96C17.592 36.0451 17.6665 36.1291 17.7663 36.2141L29.0603 47.465V49.3509H26.9602V63.0011H45.8606H54.2607V49.3509H52.1607V46.1693C54.1693 44.4672 55.3107 42.0197 55.3107 39.3747C55.3107 37.5476 54.7406 35.7731 53.6979 34.28L54.2974 33.6804C54.9506 33.0273 55.3107 32.1589 55.3107 31.2349ZM53.2107 24.6744C53.2107 25.4808 52.839 26.2274 52.2268 26.7188L48.5402 23.0322C49.0316 22.42 49.7792 22.0483 50.5846 22.0483C52.0326 22.0494 53.2107 23.2264 53.2107 24.6744ZM47.9606 19.4243C47.9606 20.2307 47.5889 20.9773 46.9767 21.4687L43.2901 17.7821C43.7815 17.1699 44.5291 16.7982 45.3345 16.7982C46.7825 16.7993 47.9606 17.9764 47.9606 19.4243ZM42.7105 14.1742C42.7105 14.9807 42.3388 15.7272 41.7266 16.2186L38.04 12.532C38.5314 11.9199 39.279 11.5481 40.0844 11.5481C41.5324 11.5492 42.7105 12.7263 42.7105 14.1742ZM34.8354 6.29911C36.2833 6.29911 37.4604 7.47618 37.4604 8.92415C37.4604 9.73057 37.0887 10.4771 36.4766 10.9685L32.7899 7.28193C33.2814 6.67082 34.029 6.29911 34.8354 6.29911ZM10.1852 17.3474C9.65596 16.8171 9.65596 15.9551 10.1852 15.4248L23.113 2.497C23.2442 2.36574 23.3975 2.26704 23.5603 2.20089C23.6338 2.17044 23.7167 2.17149 23.7944 2.15469C23.9813 2.11479 24.1661 2.11479 24.3531 2.15469C24.4308 2.17149 24.5137 2.17044 24.5872 2.20089C24.75 2.26704 24.9022 2.36574 25.0345 2.497L27.501 4.96349L12.6517 19.8128L10.1852 17.3474ZM28.9857 6.44821L30.2227 7.68513L35.4727 12.9352L36.0744 13.5369L40.7228 18.1853L41.3245 18.787L45.9729 23.4354L46.5746 24.0371L51.8247 29.2871L52.8117 30.2742C53.3419 30.8044 53.3419 31.6654 52.8117 32.1957L52.3528 32.6556L39.8849 45.1246C39.3568 45.6538 38.4926 45.6559 37.9623 45.1246L29.5884 36.7496H30.6343C33.2393 36.7496 35.3593 34.6296 35.3593 32.0245C35.3593 29.4194 33.2393 27.2995 30.6343 27.2995H20.1372L14.1353 21.2976L28.9857 6.44821ZM19.5681 29.4646L20.0039 29.4152C20.0469 29.4089 20.09 29.3995 20.1341 29.3995H30.6343C32.0822 29.3995 33.2593 30.5766 33.2593 32.0245C33.2593 33.4725 32.0822 34.6496 30.6343 34.6496H27.4884H24.519H20.1341C18.6861 34.6496 17.509 33.4725 17.509 32.0245C17.5101 30.7719 18.3932 29.725 19.5681 29.4646ZM29.0603 60.9V51.4499H37.9077C41.1344 51.4499 43.7605 54.076 43.7605 57.3027V60.9H29.0603ZM52.1607 60.9H45.8606V57.3027C45.8606 54.9863 44.8588 52.9052 43.2733 51.4499H52.1607V60.9ZM52.1869 35.792C52.8526 36.8641 53.2107 38.1041 53.2107 39.3747C53.2107 41.5324 52.2153 43.518 50.4785 44.8253L50.0606 45.1403V49.3498H37.9067H31.1593V46.4959L30.7886 46.1819C30.7414 46.141 30.691 46.1032 30.5996 46.0349L21.2786 36.7486H26.6179L36.4766 46.6082C37.1517 47.2823 38.0369 47.6194 38.922 47.6194C39.8083 47.6194 40.6945 47.2823 41.3686 46.6082L52.1869 35.792Z" fill="#00A975"/>
</g>
<defs>
<clipPath id="clip0">
<rect width="63" height="63" fill="white"/>
</clipPath>
</defs>
</svg>
