<svg width="167" height="196" viewBox="0 0 167 196" fill="none" xmlns="http://www.w3.org/2000/svg">
<path d="M7.92773 15.7021H9.70312V17.0293H7.92773V20H6.29297V17.0293H0.46582V16.0713L6.19629 7.20312H7.92773V15.7021ZM2.31152 15.7021H6.29297V9.42676L6.09961 9.77832L2.31152 15.7021Z" fill="#00A975"/>
<circle cx="83.5" cy="103.5" r="79.5" stroke="#D5DAE7" stroke-width="8"/>
<path d="M29 3C29 1.89543 29.8954 1 31 1H138C139.105 1 140 1.89543 140 3V193C140 194.105 139.105 195 138 195H31C29.8954 195 29 194.105 29 193V3Z" fill="white" stroke="#00A975" stroke-width="2"/>
<mask id="path-4-inside-1" fill="white">
<path fill-rule="evenodd" clip-rule="evenodd" d="M61.1191 5C61.0416 5.26642 61 5.54814 61 5.83958V10.6417C61 12.2986 62.3431 13.6417 64 13.6417H102C103.657 13.6417 105 12.2986 105 10.6417V5.83957C105 5.54814 104.958 5.26642 104.881 5H134C135.657 5 137 6.34315 137 8V189C137 190.657 135.657 192 134 192H35C33.3431 192 32 190.657 32 189V8C32 6.34314 33.3431 5 35 5H61.1191Z"/>
</mask>
<path fill-rule="evenodd" clip-rule="evenodd" d="M61.1191 5C61.0416 5.26642 61 5.54814 61 5.83958V10.6417C61 12.2986 62.3431 13.6417 64 13.6417H102C103.657 13.6417 105 12.2986 105 10.6417V5.83957C105 5.54814 104.958 5.26642 104.881 5H134C135.657 5 137 6.34315 137 8V189C137 190.657 135.657 192 134 192H35C33.3431 192 32 190.657 32 189V8C32 6.34314 33.3431 5 35 5H61.1191Z" fill="white"/>
<path d="M61.1191 5L62.0793 5.27935L62.4515 4H61.1191V5ZM104.881 5V4H103.549L103.921 5.27934L104.881 5ZM62 5.83958C62 5.64364 62.0279 5.45593 62.0793 5.27935L60.1589 4.72065C60.0552 5.0769 60 5.45265 60 5.83958H62ZM62 10.6417V5.83958H60V10.6417H62ZM64 12.6417C62.8954 12.6417 62 11.7463 62 10.6417H60C60 12.8509 61.7909 14.6417 64 14.6417V12.6417ZM102 12.6417H64V14.6417H102V12.6417ZM104 10.6417C104 11.7463 103.105 12.6417 102 12.6417V14.6417C104.209 14.6417 106 12.8508 106 10.6417H104ZM104 5.83957V10.6417H106V5.83957H104ZM103.921 5.27934C103.972 5.45593 104 5.64364 104 5.83957H106C106 5.45264 105.945 5.0769 105.841 4.72066L103.921 5.27934ZM104.881 6H134V4H104.881V6ZM134 6C135.105 6 136 6.89543 136 8H138C138 5.79086 136.209 4 134 4V6ZM136 8V189H138V8H136ZM136 189C136 190.105 135.105 191 134 191V193C136.209 193 138 191.209 138 189H136ZM134 191H35V193H134V191ZM35 191C33.8954 191 33 190.105 33 189H31C31 191.209 32.7909 193 35 193V191ZM33 189V8H31V189H33ZM33 8C33 6.89543 33.8954 6 35 6V4C32.7909 4 31 5.79086 31 8H33ZM35 6H61.1191V4H35V6Z" fill="#00A975" mask="url(#path-4-inside-1)"/>
<rect x="36.5" y="160.5" width="96" height="26" rx="2.5" fill="#00A975" stroke="#00A975"/>
<path d="M79.1836 170.893H76.5703V178H74.8125V170.893H72.2344V169.469H79.1836V170.893ZM83.3496 174.877H81.9492V178H80.1914V169.469H83.3613C84.3691 169.469 85.1465 169.693 85.6934 170.143C86.2402 170.592 86.5137 171.227 86.5137 172.047C86.5137 172.629 86.3867 173.115 86.1328 173.506C85.8828 173.893 85.502 174.201 84.9902 174.432L86.8359 177.918V178H84.9492L83.3496 174.877ZM81.9492 173.453H83.3672C83.8086 173.453 84.1504 173.342 84.3926 173.119C84.6348 172.893 84.7559 172.582 84.7559 172.188C84.7559 171.785 84.6406 171.469 84.4102 171.238C84.1836 171.008 83.834 170.893 83.3613 170.893H81.9492V173.453ZM92.6719 176.242H89.5898L89.0039 178H87.1348L90.3105 169.469H91.9395L95.1328 178H93.2637L92.6719 176.242ZM90.0645 174.818H92.1973L91.125 171.625L90.0645 174.818ZM95.9297 178V169.469H98.5547C99.3047 169.469 99.9746 169.639 100.564 169.979C101.158 170.314 101.621 170.795 101.953 171.42C102.285 172.041 102.451 172.748 102.451 173.541V173.934C102.451 174.727 102.287 175.432 101.959 176.049C101.635 176.666 101.176 177.145 100.582 177.484C99.9883 177.824 99.3184 177.996 98.5723 178H95.9297ZM97.6875 170.893V176.588H98.5371C99.2246 176.588 99.75 176.363 100.113 175.914C100.477 175.465 100.662 174.822 100.67 173.986V173.535C100.67 172.668 100.49 172.012 100.131 171.566C99.7715 171.117 99.2461 170.893 98.5547 170.893H97.6875ZM108.867 174.303H105.492V176.588H109.453V178H103.734V169.469H109.441V170.893H105.492V172.926H108.867V174.303Z" fill="white"/>
<path d="M55 173.267L59.1176 177L65 170" stroke="white" stroke-width="2" stroke-linecap="round"/>
<rect x="53.7181" y="83.8828" width="2.19115" height="31.4129" rx="1.09557" fill="white" stroke="#00A975"/>
<rect x="37.7625" y="111.494" width="2.19115" height="12.2053" rx="1.09557" fill="white" stroke="#00A975"/>
<rect x="42.8683" y="82.0823" width="2.82937" height="43.4177" rx="1.41469" fill="white" stroke="#00A975"/>
<rect x="48.6123" y="95.8877" width="2.19115" height="9.80431" rx="1.09557" fill="white" stroke="#00A975"/>
<rect x="58.824" y="87.4846" width="2.19115" height="18.2077" rx="1.09557" fill="white" stroke="#00A975"/>
<rect x="63.9298" y="96.488" width="2.19115" height="18.2077" rx="1.09557" fill="white" stroke="#00A975"/>
<rect x="69.0357" y="67.6765" width="2.19115" height="36.8151" rx="1.09557" fill="white" stroke="#00A975"/>
<rect x="74.1415" y="86.2839" width="2.19115" height="18.2077" rx="1.09557" fill="white" stroke="#00A975"/>
<rect x="79.2473" y="79.0811" width="2.82937" height="18.2077" rx="1.41469" fill="white" stroke="#00A975"/>
<rect x="84.9914" y="89.1697" width="2.19115" height="18.2077" rx="1.09557" fill="white" stroke="#00A975"/>
<rect x="106.885" y="65.7832" width="2.19115" height="31.4129" rx="1.09557" fill="white" stroke="#00A975"/>
<rect x="90.9298" y="88.0386" width="2.19115" height="12.2053" rx="1.09557" fill="white" stroke="#00A975"/>
<rect x="96.0356" y="63.9827" width="2.82937" height="43.4177" rx="1.41469" fill="white" stroke="#00A975"/>
<rect x="101.78" y="77.7883" width="2.19115" height="9.80431" rx="1.09557" fill="white" stroke="#00A975"/>
<rect x="111.991" y="82.3823" width="2.19115" height="18.2077" rx="1.09557" fill="white" stroke="#00A975"/>
<rect x="117.097" y="86.9072" width="2.19115" height="18.2077" rx="1.09557" fill="white" stroke="#00A975"/>
<rect x="122.203" y="60.8892" width="2.19115" height="36.8151" rx="1.09557" fill="white" stroke="#00A975"/>
<rect x="127.309" y="68.1843" width="2.19115" height="18.2077" rx="1.09557" fill="white" stroke="#00A975"/>
<rect x="38" y="147" width="2" height="9" rx="1" fill="#D5DAE7"/>
<rect x="42" y="143" width="2" height="13" rx="1" fill="#D5DAE7"/>
<rect x="46" y="140" width="2" height="16" rx="1" fill="#D5DAE7"/>
<rect x="50" y="147" width="2" height="9" rx="1" fill="#D5DAE7"/>
<rect x="54" y="153" width="2" height="3" rx="1" fill="#D5DAE7"/>
<rect x="58" y="149" width="2" height="7" rx="1" fill="#D5DAE7"/>
<rect x="62" y="146" width="2" height="10" rx="1" fill="#D5DAE7"/>
<rect x="66" y="142" width="2" height="14" rx="1" fill="#D5DAE7"/>
<rect x="70" y="147" width="2" height="9" rx="1" fill="#D5DAE7"/>
<rect x="74" y="143" width="2" height="13" rx="1" fill="#D5DAE7"/>
<rect x="78" y="138" width="2" height="18" rx="1" fill="#D5DAE7"/>
<rect x="82" y="142" width="2" height="14" rx="1" fill="#D5DAE7"/>
<rect x="86" y="143" width="2" height="13" rx="1" fill="#D5DAE7"/>
<rect x="90" y="149" width="2" height="7" rx="1" fill="#D5DAE7"/>
<rect x="94" y="146" width="2" height="10" rx="1" fill="#D5DAE7"/>
<rect x="98" y="139" width="2" height="17" rx="1" fill="#D5DAE7"/>
<rect x="102" y="144" width="2" height="12" rx="1" fill="#D5DAE7"/>
<rect x="106" y="143" width="2" height="13" rx="1" fill="#D5DAE7"/>
<rect x="110" y="133" width="2" height="23" rx="1" fill="#D5DAE7"/>
<rect x="114" y="132" width="2" height="24" rx="1" fill="#D5DAE7"/>
<rect x="118" y="140" width="2" height="16" rx="1" fill="#D5DAE7"/>
<rect x="122" y="134" width="2" height="22" rx="1" fill="#D5DAE7"/>
<rect x="126" y="127" width="2" height="29" rx="1" fill="#D5DAE7"/>
<rect x="130" y="120" width="2" height="36" rx="1" fill="#D5DAE7"/>
<rect x="37.5" y="23.5" width="93" height="4" rx="2" fill="white" stroke="#00A975"/>
</svg>
