<svg width="167" height="192" viewBox="0 0 167 192" fill="none" xmlns="http://www.w3.org/2000/svg">
<circle cx="83.5" cy="100.5" r="79.5" stroke="#D5DAE7" stroke-width="8"/>
<path d="M28 3.99999C28 2.89543 28.8954 2 30 2H105.899C106.373 2 106.831 2.16833 107.193 2.47498L138.294 28.8639C138.742 29.2439 139 29.8016 139 30.3889V189C139 190.105 138.105 191 137 191H30C28.8954 191 28 190.105 28 189V3.99999Z" fill="white" stroke="#00A975" stroke-width="2"/>
<path d="M107 2V28C107 29.1046 107.895 30 109 30H139" stroke="#00A975" stroke-width="2"/>
<rect x="35.5" y="29.5" width="62" height="5" rx="2.5" stroke="#00A975"/>
<rect x="35.5" y="39.5" width="39" height="5" rx="2.5" stroke="#00A975"/>
<rect x="60" y="62" width="72" height="5" rx="2.5" fill="#D5DAE7"/>
<rect x="60" y="71" width="49" height="5" rx="2.5" fill="#D5DAE7"/>
<rect x="35.5" y="60.5" width="17" height="16" rx="2.5" fill="white" stroke="#00A975"/>
<path d="M40 68.2667L43.2941 72L48 65" stroke="#00A975" stroke-width="2" stroke-linecap="round"/>
<rect x="60" y="85" width="72" height="5" rx="2.5" fill="#D5DAE7"/>
<rect x="60" y="94" width="49" height="5" rx="2.5" fill="#D5DAE7"/>
<rect x="35.5" y="83.5" width="17" height="16" rx="2.5" fill="white" stroke="#00A975"/>
<path d="M40 91.2667L43.2941 95L48 88" stroke="#00A975" stroke-width="2" stroke-linecap="round"/>
<rect x="60" y="108" width="72" height="5" rx="2.5" fill="#D5DAE7"/>
<rect x="60" y="117" width="49" height="5" rx="2.5" fill="#D5DAE7"/>
<rect x="35.5" y="106.5" width="17" height="16" rx="2.5" fill="white" stroke="#00A975"/>
<path d="M40 114.267L43.2941 118L48 111" stroke="#00A975" stroke-width="2" stroke-linecap="round"/>
<rect x="60" y="131" width="72" height="5" rx="2.5" fill="#D5DAE7"/>
<rect x="60" y="140" width="49" height="5" rx="2.5" fill="#D5DAE7"/>
<rect x="35.5" y="129.5" width="17" height="16" rx="2.5" fill="white" stroke="#00A975"/>
<path d="M40 137.267L43.2941 141L48 134" stroke="#00A975" stroke-width="2" stroke-linecap="round"/>
<rect x="35.5" y="157.5" width="96" height="26" rx="2.5" fill="#00A975" stroke="#00A975"/>
<path d="M70.459 172.158C70.3926 173.076 70.0527 173.799 69.4395 174.326C68.8301 174.854 68.0254 175.117 67.0254 175.117C65.9316 175.117 65.0703 174.75 64.4414 174.016C63.8164 173.277 63.5039 172.266 63.5039 170.98V170.459C63.5039 169.639 63.6484 168.916 63.9375 168.291C64.2266 167.666 64.6387 167.188 65.1738 166.855C65.7129 166.52 66.3379 166.352 67.0488 166.352C68.0332 166.352 68.8262 166.615 69.4277 167.143C70.0293 167.67 70.377 168.41 70.4707 169.363H68.7129C68.6699 168.812 68.5156 168.414 68.25 168.168C67.9883 167.918 67.5879 167.793 67.0488 167.793C66.4629 167.793 66.0234 168.004 65.7305 168.426C65.4414 168.844 65.293 169.494 65.2852 170.377V171.021C65.2852 171.943 65.4238 172.617 65.7012 173.043C65.9824 173.469 66.4238 173.682 67.0254 173.682C67.5684 173.682 67.9727 173.559 68.2383 173.312C68.5078 173.062 68.6621 172.678 68.7012 172.158H70.459ZM78.6211 170.928C78.6211 171.768 78.4727 172.504 78.1758 173.137C77.8789 173.77 77.4531 174.258 76.8984 174.602C76.3477 174.945 75.7148 175.117 75 175.117C74.293 175.117 73.6621 174.947 73.1074 174.607C72.5527 174.268 72.123 173.783 71.8184 173.154C71.5137 172.521 71.3594 171.795 71.3555 170.975V170.553C71.3555 169.713 71.5059 168.975 71.8066 168.338C72.1113 167.697 72.5391 167.207 73.0898 166.867C73.6445 166.523 74.2773 166.352 74.9883 166.352C75.6992 166.352 76.3301 166.523 76.8809 166.867C77.4355 167.207 77.8633 167.697 78.1641 168.338C78.4688 168.975 78.6211 169.711 78.6211 170.547V170.928ZM76.8398 170.541C76.8398 169.646 76.6797 168.967 76.3594 168.502C76.0391 168.037 75.582 167.805 74.9883 167.805C74.3984 167.805 73.9434 168.035 73.623 168.496C73.3027 168.953 73.1406 169.625 73.1367 170.512V170.928C73.1367 171.799 73.2969 172.475 73.6172 172.955C73.9375 173.436 74.3984 173.676 75 173.676C75.5898 173.676 76.043 173.445 76.3594 172.984C76.6758 172.52 76.8359 171.844 76.8398 170.957V170.541ZM86.8359 175H85.0781L81.6562 169.387V175H79.8984V166.469H81.6562L85.084 172.094V166.469H86.8359V175ZM93.5039 171.514H90.1289V175H88.3711V166.469H93.9258V167.893H90.1289V170.096H93.5039V171.514ZM96.8145 175H95.0566V166.469H96.8145V175ZM101.607 171.877H100.207V175H98.4492V166.469H101.619C102.627 166.469 103.404 166.693 103.951 167.143C104.498 167.592 104.771 168.227 104.771 169.047C104.771 169.629 104.645 170.115 104.391 170.506C104.141 170.893 103.76 171.201 103.248 171.432L105.094 174.918V175H103.207L101.607 171.877ZM100.207 170.453H101.625C102.066 170.453 102.408 170.342 102.65 170.119C102.893 169.893 103.014 169.582 103.014 169.188C103.014 168.785 102.898 168.469 102.668 168.238C102.441 168.008 102.092 167.893 101.619 167.893H100.207V170.453ZM108.41 166.469L110.602 172.656L112.781 166.469H115.09V175H113.326V172.668L113.502 168.643L111.199 175H109.992L107.695 168.648L107.871 172.668V175H106.113V166.469H108.41Z" fill="white"/>
<path d="M49 170.267L53.1176 174L59 167" stroke="white" stroke-width="2" stroke-linecap="round"/>
<path d="M13.4482 17H5.06348V15.8311L9.49316 10.9092C10.1494 10.165 10.6006 9.56152 10.8467 9.09863C11.0986 8.62988 11.2246 8.14648 11.2246 7.64844C11.2246 6.98047 11.0225 6.43262 10.6182 6.00488C10.2139 5.57715 9.6748 5.36328 9.00098 5.36328C8.19238 5.36328 7.5625 5.59473 7.11133 6.05762C6.66602 6.51465 6.44336 7.15332 6.44336 7.97363H4.81738C4.81738 6.7959 5.19531 5.84375 5.95117 5.11719C6.71289 4.39062 7.72949 4.02734 9.00098 4.02734C10.1904 4.02734 11.1309 4.34082 11.8223 4.96777C12.5137 5.58887 12.8594 6.41797 12.8594 7.45508C12.8594 8.71484 12.0566 10.2148 10.4512 11.9551L7.02344 15.6729H13.4482V17Z" fill="#00A975"/>
</svg>
