<svg width="167" height="200" viewBox="0 0 167 200" fill="none" xmlns="http://www.w3.org/2000/svg">
<path d="M3.42773 9.81055H4.64941C5.41699 9.79883 6.02051 9.59668 6.45996 9.2041C6.89941 8.81152 7.11914 8.28125 7.11914 7.61328C7.11914 6.11328 6.37207 5.36328 4.87793 5.36328C4.1748 5.36328 3.6123 5.56543 3.19043 5.96973C2.77441 6.36816 2.56641 6.89844 2.56641 7.56055H0.94043C0.94043 6.54688 1.30957 5.70605 2.04785 5.03809C2.79199 4.36426 3.73535 4.02734 4.87793 4.02734C6.08496 4.02734 7.03125 4.34668 7.7168 4.98535C8.40234 5.62402 8.74512 6.51172 8.74512 7.64844C8.74512 8.20508 8.56348 8.74414 8.2002 9.26562C7.84277 9.78711 7.35352 10.1768 6.73242 10.4346C7.43555 10.6572 7.97754 11.0264 8.3584 11.542C8.74512 12.0576 8.93848 12.6875 8.93848 13.4316C8.93848 14.5801 8.56348 15.4912 7.81348 16.165C7.06348 16.8389 6.08789 17.1758 4.88672 17.1758C3.68555 17.1758 2.70703 16.8506 1.95117 16.2002C1.20117 15.5498 0.826172 14.6914 0.826172 13.625H2.46094C2.46094 14.2988 2.68066 14.8379 3.12012 15.2422C3.55957 15.6465 4.14844 15.8486 4.88672 15.8486C5.67188 15.8486 6.27246 15.6436 6.68848 15.2334C7.10449 14.8232 7.3125 14.2344 7.3125 13.4668C7.3125 12.7227 7.08398 12.1514 6.62695 11.7529C6.16992 11.3545 5.51074 11.1494 4.64941 11.1377H3.42773V9.81055Z" fill="#00A975"/>
<circle cx="83.5" cy="100.5" r="82.5" stroke="#D5DAE7" stroke-width="2"/>
<rect x="27" y="7" width="113" height="173" rx="3" fill="white"/>
<path d="M140 14H143C144.657 14 146 12.6569 146 11V5C146 3.34315 144.657 2 143 2H24C22.3431 2 21 3.34315 21 5V11C21 12.6569 22.3431 14 24 14H27" stroke="#00A975" stroke-width="2"/>
<path d="M140 196V10C140 8.34315 138.657 7 137 7H30C28.3431 7 27 8.34315 27 10V196" stroke="#00A975" stroke-width="2"/>
<mask id="path-6-inside-1" fill="white">
<path fill-rule="evenodd" clip-rule="evenodd" d="M93.5688 194.038L96.3964 196.7L98.6048 198.861C99.9652 200.192 102.14 200.192 103.5 198.861L105.712 196.697L105.013 195.982L102.801 198.147C101.829 199.097 100.276 199.097 99.3042 198.147L97.0923 195.982L96.7426 196.34L97.0854 195.976L94.2543 193.31C92.8292 191.968 90.5805 192.056 89.2643 193.504L87.0122 195.984L87.0121 195.983L85.3369 197.783C84.3795 198.812 82.7628 198.849 81.7585 197.867L79.647 195.801L77.4351 193.637C76.0747 192.305 73.9 192.305 72.5396 193.637L70.3279 195.801L70.3277 195.8L68.1433 197.938C67.1626 198.897 65.5916 198.887 64.6234 197.915L62.7927 196.076L62.4405 196.427L62.7881 196.072L60.5762 193.907C59.2158 192.576 57.0411 192.576 55.6807 193.907L53.4688 196.072L54.1682 196.786L56.38 194.622C57.3517 193.671 58.9051 193.671 59.8769 194.622L62.0886 196.786L62.0887 196.786L63.9148 198.62C65.2703 199.982 67.4696 199.996 68.8427 198.652L71.0269 196.515L71.0271 196.516L73.2389 194.351C74.2107 193.401 75.764 193.401 76.7358 194.351L78.9476 196.516L81.0592 198.582C82.4652 199.957 84.7286 199.904 86.0688 198.465L87.7441 196.665L87.3825 196.328L87.7482 196.66L90.0044 194.177C90.9446 193.142 92.5508 193.079 93.5688 194.038ZM124.587 194.385L122.537 196.391L122.571 196.426L120.387 198.563C119.014 199.906 116.814 199.892 115.459 198.531L113.633 196.697L113.633 196.697L111.421 194.533C110.449 193.582 108.896 193.582 107.924 194.533L105.712 196.697L105.013 195.982L107.225 193.818C108.585 192.487 110.76 192.487 112.12 193.818L114.332 195.982L113.985 196.337L114.337 195.987L116.167 197.825C117.136 198.798 118.707 198.808 119.687 197.848L121.684 195.894L121.65 195.86L123.888 193.67C125.236 192.351 127.388 192.338 128.752 193.64L130.84 195.633L133.453 198.04C134.411 198.924 135.888 198.922 136.845 198.036L139.66 195.43C139.863 195.243 140.179 195.255 140.367 195.457C140.555 195.66 140.542 195.976 140.34 196.164L137.524 198.77C136.185 200.01 134.117 200.012 132.775 198.776L130.161 196.368L130.155 196.362L128.062 194.364C127.087 193.433 125.55 193.443 124.587 194.385ZM42.3768 194.279L44.8425 196.78L45.2056 196.423L44.8489 196.787L47.0608 198.951C48.4212 200.282 50.5959 200.282 51.9563 198.951L54.1682 196.787L53.4688 196.072L51.257 198.236C50.2853 199.187 48.7319 199.187 47.7602 198.236L45.5547 196.078L45.5547 196.078L43.089 193.577C41.6789 192.146 39.3564 192.193 38.0057 193.68L35.8292 196.076L35.8214 196.085L34.3937 197.714C33.5418 198.687 32.0892 198.849 31.0434 198.089L27.3327 195.393C27.1093 195.23 26.7966 195.28 26.6343 195.503C26.472 195.726 26.5214 196.039 26.7448 196.201L30.4556 198.898C31.9196 199.962 33.9533 199.735 35.1459 198.373L36.5705 196.747L38.7458 194.353C39.7107 193.29 41.3696 193.257 42.3768 194.279Z"/>
</mask>
<path d="M96.3964 196.7L97.7951 195.271C97.786 195.262 97.7767 195.253 97.7675 195.244L96.3964 196.7ZM93.5688 194.038L94.9398 192.582V192.582L93.5688 194.038ZM98.6048 198.861L97.2061 200.291V200.291L98.6048 198.861ZM103.5 198.861L104.899 200.291V200.291L103.5 198.861ZM105.712 196.697L107.111 198.127C107.9 197.354 107.914 196.088 107.142 195.298L105.712 196.697ZM105.013 195.982L106.442 194.584C105.67 193.794 104.404 193.78 103.614 194.553L105.013 195.982ZM102.801 198.147L101.402 196.717V196.717L102.801 198.147ZM99.3042 198.147L100.703 196.717V196.717L99.3042 198.147ZM97.0923 195.982L98.491 194.553C98.1119 194.182 97.6009 193.977 97.0705 193.982C96.5401 193.988 96.0337 194.204 95.6628 194.584L97.0923 195.982ZM96.7426 196.34L95.2866 194.969C94.5345 195.767 94.5662 197.023 95.3577 197.783C96.1491 198.542 97.4049 198.523 98.1722 197.738L96.7426 196.34ZM97.0854 195.976L98.5415 197.347C98.9051 196.961 99.1004 196.446 99.0845 195.916C99.0686 195.385 98.8427 194.883 98.4565 194.52L97.0854 195.976ZM94.2543 193.31L95.6254 191.854V191.854L94.2543 193.31ZM89.2643 193.504L87.7839 192.16V192.16L89.2643 193.504ZM87.0122 195.984L85.6541 197.452C86.0458 197.814 86.566 198.005 87.099 197.982C87.6321 197.958 88.1338 197.723 88.4925 197.328L87.0122 195.984ZM87.0121 195.983L88.3702 194.515C87.5611 193.767 86.2991 193.814 85.5481 194.621L87.0121 195.983ZM85.3369 197.783L86.8008 199.146V199.146L85.3369 197.783ZM81.7585 197.867L83.1573 196.437L83.1573 196.437L81.7585 197.867ZM79.647 195.801L78.2483 197.23V197.23L79.647 195.801ZM77.4351 193.637L78.8339 192.207V192.207L77.4351 193.637ZM72.5396 193.637L73.9383 195.066V195.066L72.5396 193.637ZM70.3279 195.801L68.8956 197.196C69.2663 197.577 69.773 197.794 70.3041 197.8C70.8352 197.807 71.347 197.602 71.7266 197.23L70.3279 195.801ZM70.3277 195.8L71.76 194.404C71.3894 194.024 70.8826 193.807 70.3515 193.8C69.8204 193.794 69.3086 193.999 68.929 194.371L70.3277 195.8ZM68.1433 197.938L66.7446 196.508V196.508L68.1433 197.938ZM64.6234 197.915L66.0406 196.504L66.0406 196.504L64.6234 197.915ZM62.7927 196.076L64.2099 194.665C63.4305 193.882 62.1642 193.88 61.3815 194.659L62.7927 196.076ZM62.4405 196.427L61.011 195.028C60.2421 195.814 60.2517 197.073 61.0325 197.847C61.8134 198.621 63.0726 198.62 63.8517 197.844L62.4405 196.427ZM62.7881 196.072L64.2176 197.47C64.5886 197.091 64.7937 196.58 64.788 196.05C64.7822 195.52 64.5659 195.013 64.1868 194.642L62.7881 196.072ZM60.5762 193.907L61.9749 192.478V192.478L60.5762 193.907ZM55.6807 193.907L54.2819 192.478V192.478L55.6807 193.907ZM53.4688 196.072L52.0701 194.642C51.2806 195.415 51.2668 196.681 52.0393 197.47L53.4688 196.072ZM54.1682 196.786L52.7386 198.185C53.1096 198.564 53.616 198.781 54.1464 198.786C54.6768 198.792 55.1878 198.587 55.5669 198.216L54.1682 196.786ZM56.38 194.622L54.9813 193.193V193.193L56.38 194.622ZM59.8769 194.622L58.4781 196.052L58.4781 196.052L59.8769 194.622ZM62.0886 196.786L60.6898 198.216L60.6909 198.217L62.0886 196.786ZM62.0887 196.786L63.5059 195.375C63.4995 195.369 63.4929 195.362 63.4864 195.356L62.0887 196.786ZM63.9148 198.62L62.4976 200.032L62.4976 200.032L63.9148 198.62ZM68.8427 198.652L70.2414 200.082V200.082L68.8427 198.652ZM71.0269 196.515L72.46 195.12C72.0894 194.74 71.5825 194.522 71.0512 194.515C70.5199 194.509 70.0079 194.714 69.6282 195.086L71.0269 196.515ZM71.0271 196.516L69.594 197.911C69.9646 198.291 70.4715 198.509 71.0027 198.515C71.534 198.522 72.046 198.317 72.4258 197.945L71.0271 196.516ZM73.2389 194.351L74.6377 195.781V195.781L73.2389 194.351ZM76.7358 194.351L75.337 195.781V195.781L76.7358 194.351ZM78.9476 196.516L77.5489 197.945V197.945L78.9476 196.516ZM81.0592 198.582L82.4579 197.152V197.152L81.0592 198.582ZM86.0688 198.465L84.6049 197.102L86.0688 198.465ZM87.7441 196.665L89.208 198.027C89.5694 197.639 89.7618 197.123 89.7428 196.593C89.7238 196.063 89.495 195.562 89.1067 195.201L87.7441 196.665ZM87.3825 196.328L88.7274 194.848C87.9133 194.108 86.6548 194.165 85.9104 194.975C85.1659 195.784 85.2148 197.043 86.0199 197.792L87.3825 196.328ZM87.7482 196.66L86.4034 198.141C87.221 198.884 88.4858 198.823 89.2286 198.005L87.7482 196.66ZM90.0044 194.177L88.5241 192.832V192.832L90.0044 194.177ZM122.537 196.391L121.138 194.961C120.759 195.332 120.543 195.839 120.537 196.369C120.532 196.9 120.737 197.411 121.108 197.79L122.537 196.391ZM124.587 194.385L123.188 192.956V192.956L124.587 194.385ZM122.571 196.426L123.97 197.855C124.349 197.484 124.565 196.978 124.571 196.447C124.577 195.917 124.372 195.406 124.001 195.027L122.571 196.426ZM120.387 198.563L121.785 199.992L120.387 198.563ZM115.459 198.531L116.876 197.12L116.876 197.12L115.459 198.531ZM113.633 196.697L115.05 195.286C115.046 195.282 115.042 195.278 115.038 195.274L113.633 196.697ZM113.633 196.697L115.038 195.274L115.031 195.267L113.633 196.697ZM111.421 194.533L112.82 193.103L112.82 193.103L111.421 194.533ZM107.924 194.533L106.525 193.103L106.525 193.103L107.924 194.533ZM105.712 196.697L104.283 198.096C105.055 198.885 106.321 198.899 107.111 198.126L105.712 196.697ZM105.013 195.982L103.614 194.553C103.235 194.924 103.019 195.43 103.013 195.96C103.007 196.491 103.212 197.002 103.583 197.381L105.013 195.982ZM107.225 193.818L108.623 195.248V195.248L107.225 193.818ZM112.12 193.818L110.722 195.248V195.248L112.12 193.818ZM114.332 195.982L115.762 197.381C116.133 197.002 116.338 196.491 116.332 195.96C116.326 195.43 116.11 194.924 115.731 194.553L114.332 195.982ZM113.985 196.337L112.555 194.939C111.786 195.725 111.796 196.984 112.577 197.758C113.357 198.532 114.617 198.53 115.396 197.755L113.985 196.337ZM114.337 195.987L115.754 194.576C114.975 193.793 113.708 193.79 112.926 194.569L114.337 195.987ZM116.167 197.825L114.75 199.236L114.75 199.236L116.167 197.825ZM119.687 197.848L118.289 196.419V196.419L119.687 197.848ZM121.684 195.894L123.083 197.324C123.462 196.953 123.678 196.447 123.684 195.916C123.69 195.386 123.485 194.875 123.114 194.496L121.684 195.894ZM121.65 195.86L120.252 194.43C119.872 194.801 119.656 195.308 119.65 195.838C119.645 196.368 119.85 196.879 120.221 197.258L121.65 195.86ZM123.888 193.67L122.489 192.241V192.241L123.888 193.67ZM128.752 193.64L127.371 195.087V195.087L128.752 193.64ZM130.84 195.633L129.459 197.08C129.467 197.088 129.476 197.096 129.485 197.104L130.84 195.633ZM133.453 198.04L134.808 196.569V196.569L133.453 198.04ZM136.845 198.036L138.203 199.504L138.203 199.504L136.845 198.036ZM139.66 195.43L141.019 196.898V196.898L139.66 195.43ZM140.34 196.164L141.698 197.632L141.698 197.632L140.34 196.164ZM137.524 198.77L136.165 197.303L136.165 197.303L137.524 198.77ZM132.775 198.776L134.13 197.305L134.13 197.305L132.775 198.776ZM130.161 196.368L128.802 197.835L128.806 197.839L130.161 196.368ZM130.155 196.362L128.774 197.808C128.781 197.815 128.788 197.822 128.796 197.829L130.155 196.362ZM128.062 194.364L129.443 192.917L129.443 192.917L128.062 194.364ZM44.8425 196.78L43.4181 198.184C43.7904 198.562 44.2976 198.776 44.828 198.78C45.3584 198.784 45.8686 198.577 46.2464 198.205L44.8425 196.78ZM42.3768 194.279L40.9524 195.683L42.3768 194.279ZM45.2056 196.423L46.6351 197.821C47.4027 197.037 47.3947 195.78 46.6172 195.006C45.8398 194.231 44.5833 194.228 43.8017 194.998L45.2056 196.423ZM44.8489 196.787L43.4194 195.388C42.6469 196.178 42.6607 197.444 43.4502 198.217L44.8489 196.787ZM47.0608 198.951L48.4595 197.522V197.522L47.0608 198.951ZM51.9563 198.951L50.5576 197.522L50.5576 197.522L51.9563 198.951ZM54.1682 196.787L55.5669 198.217C55.9461 197.846 56.1623 197.339 56.1681 196.809C56.1739 196.278 55.9687 195.767 55.5977 195.388L54.1682 196.787ZM53.4688 196.072L54.8984 194.674C54.1259 193.884 52.8596 193.87 52.0701 194.643L53.4688 196.072ZM51.257 198.236L49.8582 196.807L49.8582 196.807L51.257 198.236ZM47.7602 198.236L49.1589 196.807L49.1589 196.807L47.7602 198.236ZM45.5547 196.078L44.1525 194.652C43.7695 195.029 43.554 195.544 43.5547 196.081C43.5553 196.618 43.772 197.132 44.1559 197.508L45.5547 196.078ZM45.5547 196.078L46.9568 197.505C47.3354 197.132 47.5505 196.625 47.5547 196.094C47.5588 195.563 47.3518 195.053 46.9792 194.675L45.5547 196.078ZM43.089 193.577L44.5134 192.173V192.173L43.089 193.577ZM38.0057 193.68L39.486 195.025L39.486 195.025L38.0057 193.68ZM35.8292 196.076L34.3488 194.731L34.3399 194.741L35.8292 196.076ZM35.8214 196.085L34.3321 194.75C34.327 194.755 34.322 194.761 34.317 194.767L35.8214 196.085ZM34.3937 197.714L35.8981 199.032L34.3937 197.714ZM31.0434 198.089L32.2192 196.471H32.2192L31.0434 198.089ZM27.3327 195.393L28.5085 193.775L28.5085 193.775L27.3327 195.393ZM26.6343 195.503L28.2522 196.679L28.2522 196.679L26.6343 195.503ZM26.7448 196.201L25.569 197.819L25.569 197.819L26.7448 196.201ZM30.4556 198.898L29.2798 200.516H29.2798L30.4556 198.898ZM35.1459 198.373L36.6503 199.691L36.6503 199.691L35.1459 198.373ZM36.5705 196.747L35.0901 195.402C35.082 195.411 35.074 195.42 35.0661 195.429L36.5705 196.747ZM38.7458 194.353L40.2262 195.697L40.2262 195.697L38.7458 194.353ZM97.7675 195.244L94.9398 192.582L92.1977 195.494L95.0253 198.157L97.7675 195.244ZM100.004 197.432L97.7951 195.271L94.9976 198.13L97.2061 200.291L100.004 197.432ZM102.102 197.432C101.519 198.002 100.587 198.002 100.004 197.432L97.2061 200.291C99.3439 202.383 102.761 202.383 104.899 200.291L102.102 197.432ZM104.313 195.268L102.102 197.432L104.899 200.291L107.111 198.127L104.313 195.268ZM103.583 197.381L104.283 198.096L107.142 195.298L106.442 194.584L103.583 197.381ZM104.2 199.576L106.412 197.412L103.614 194.553L101.402 196.717L104.2 199.576ZM97.9054 199.576C99.6545 201.287 102.451 201.287 104.2 199.576L101.402 196.717C101.208 196.907 100.897 196.907 100.703 196.717L97.9054 199.576ZM95.6936 197.412L97.9054 199.576L100.703 196.717L98.491 194.553L95.6936 197.412ZM98.1722 197.738L98.5218 197.381L95.6628 194.584L95.3131 194.941L98.1722 197.738ZM95.6293 194.605L95.2866 194.969L98.1987 197.711L98.5415 197.347L95.6293 194.605ZM92.8832 194.766L95.7143 197.432L98.4565 194.52L95.6254 191.854L92.8832 194.766ZM90.7446 194.849C91.3087 194.228 92.2724 194.191 92.8832 194.766L95.6254 191.854C93.3859 189.745 89.8523 189.883 87.7839 192.16L90.7446 194.849ZM88.4925 197.328L90.7446 194.849L87.7839 192.16L85.5318 194.639L88.4925 197.328ZM88.3703 194.515L88.3702 194.515L85.654 197.452L85.6541 197.452L88.3703 194.515ZM85.5481 194.621L83.8729 196.421L86.8008 199.146L88.476 197.346L85.5481 194.621ZM83.8729 196.421C83.6815 196.626 83.3581 196.634 83.1573 196.437L80.3598 199.296C82.1676 201.065 85.0776 200.997 86.8008 199.146L83.8729 196.421ZM83.1573 196.437L81.0457 194.371L78.2483 197.23L80.3598 199.296L83.1573 196.437ZM81.0457 194.371L78.8339 192.207L76.0364 195.066L78.2483 197.23L81.0457 194.371ZM78.8339 192.207C76.6961 190.115 73.2786 190.115 71.1409 192.207L73.9383 195.066C74.5213 194.496 75.4534 194.496 76.0364 195.066L78.8339 192.207ZM71.1409 192.207L68.9292 194.371L71.7266 197.23L73.9383 195.066L71.1409 192.207ZM71.7603 194.405L71.76 194.404L68.8954 197.196L68.8956 197.196L71.7603 194.405ZM68.929 194.371L66.7446 196.508L69.5421 199.367L71.7264 197.23L68.929 194.371ZM66.7446 196.508C66.5485 196.7 66.2343 196.698 66.0406 196.504L63.2062 199.326C64.9489 201.076 67.7767 201.095 69.5421 199.367L66.7446 196.508ZM66.0406 196.504L64.2099 194.665L61.3755 197.487L63.2062 199.326L66.0406 196.504ZM61.3815 194.659L61.0293 195.01L63.8517 197.844L64.2039 197.493L61.3815 194.659ZM63.8701 197.826L64.2176 197.47L61.3585 194.673L61.011 195.028L63.8701 197.826ZM64.1868 194.642L61.9749 192.478L59.1775 195.337L61.3893 197.501L64.1868 194.642ZM61.9749 192.478C59.8372 190.386 56.4197 190.386 54.2819 192.478L57.0794 195.337C57.6624 194.767 58.5945 194.767 59.1775 195.337L61.9749 192.478ZM54.2819 192.478L52.0701 194.642L54.8675 197.501L57.0794 195.337L54.2819 192.478ZM52.0393 197.47L52.7386 198.185L55.5977 195.388L54.8983 194.673L52.0393 197.47ZM55.5669 198.216L57.7788 196.052L54.9813 193.193L52.7694 195.357L55.5669 198.216ZM57.7788 196.052C57.9731 195.862 58.2838 195.862 58.4781 196.052L61.2756 193.193C59.5265 191.481 56.7304 191.481 54.9813 193.193L57.7788 196.052ZM58.4781 196.052L60.6898 198.216L63.4873 195.357L61.2756 193.193L58.4781 196.052ZM60.6909 198.217L60.6911 198.217L63.4864 195.356L63.4862 195.356L60.6909 198.217ZM60.6715 198.198L62.4976 200.032L65.332 197.209L63.5059 195.375L60.6715 198.198ZM62.4976 200.032C64.6276 202.171 68.0837 202.193 70.2414 200.082L67.444 197.223C66.8555 197.799 65.9129 197.793 65.332 197.209L62.4976 200.032ZM70.2414 200.082L72.4256 197.945L69.6282 195.086L67.444 197.223L70.2414 200.082ZM69.5938 197.91L69.594 197.911L72.4602 195.12L72.46 195.12L69.5938 197.91ZM72.4258 197.945L74.6377 195.781L71.8402 192.922L69.6284 195.086L72.4258 197.945ZM74.6377 195.781C74.832 195.591 75.1427 195.591 75.337 195.781L78.1345 192.922C76.3854 191.21 73.5893 191.21 71.8402 192.922L74.6377 195.781ZM75.337 195.781L77.5489 197.945L80.3464 195.086L78.1345 192.922L75.337 195.781ZM77.5489 197.945L79.6604 200.011L82.4579 197.152L80.3464 195.086L77.5489 197.945ZM79.6604 200.011C81.8699 202.173 85.4266 202.09 87.5328 199.827L84.6049 197.102C84.0305 197.719 83.0605 197.742 82.4579 197.152L79.6604 200.011ZM87.5328 199.827L89.208 198.027L86.2801 195.302L84.6049 197.102L87.5328 199.827ZM89.1067 195.201L88.7452 194.864L86.0199 197.792L86.3814 198.129L89.1067 195.201ZM89.093 195.18L88.7274 194.848L86.0377 197.809L86.4034 198.141L89.093 195.18ZM88.5241 192.832L86.2679 195.316L89.2286 198.005L91.4848 195.522L88.5241 192.832ZM94.9398 192.582C93.1076 190.856 90.2164 190.969 88.5241 192.832L91.4848 195.522C91.6728 195.315 91.9941 195.302 92.1977 195.494L94.9398 192.582ZM123.936 197.82L125.986 195.815L123.188 192.956L121.138 194.961L123.936 197.82ZM124.001 195.027L123.967 194.992L121.108 197.79L121.142 197.824L124.001 195.027ZM121.785 199.992L123.97 197.855L121.172 194.996L118.988 197.133L121.785 199.992ZM114.042 199.942C116.172 202.081 119.628 202.104 121.785 199.992L118.988 197.133C118.4 197.709 117.457 197.703 116.876 197.12L114.042 199.942ZM112.216 198.108L114.042 199.942L116.876 197.12L115.05 195.286L112.216 198.108ZM112.227 198.12L112.227 198.12L115.038 195.274L115.038 195.274L112.227 198.12ZM110.022 195.962L112.234 198.126L115.031 195.267L112.82 193.103L110.022 195.962ZM109.323 195.962C109.517 195.772 109.828 195.772 110.022 195.962L112.82 193.103C111.071 191.392 108.274 191.392 106.525 193.103L109.323 195.962ZM107.111 198.126L109.323 195.962L106.525 193.103L104.314 195.267L107.111 198.126ZM103.583 197.381L104.283 198.096L107.142 195.298L106.442 194.583L103.583 197.381ZM105.826 192.388L103.614 194.553L106.412 197.412L108.623 195.248L105.826 192.388ZM113.519 192.388C111.381 190.297 107.964 190.297 105.826 192.388L108.623 195.248C109.206 194.677 110.139 194.677 110.722 195.248L113.519 192.388ZM115.731 194.553L113.519 192.388L110.722 195.248L112.933 197.412L115.731 194.553ZM115.414 197.736L115.762 197.381L112.903 194.583L112.555 194.939L115.414 197.736ZM112.926 194.569L112.573 194.92L115.396 197.755L115.748 197.404L112.926 194.569ZM117.585 196.414L115.754 194.576L112.92 197.398L114.75 199.236L117.585 196.414ZM118.289 196.419C118.093 196.611 117.778 196.608 117.585 196.414L114.75 199.236C116.493 200.987 119.321 201.005 121.086 199.278L118.289 196.419ZM120.285 194.465L118.289 196.419L121.086 199.278L123.083 197.324L120.285 194.465ZM120.221 197.258L120.255 197.293L123.114 194.496L123.08 194.461L120.221 197.258ZM122.489 192.241L120.252 194.43L123.049 197.289L125.287 195.1L122.489 192.241ZM130.133 192.194C127.989 190.147 124.608 190.167 122.489 192.241L125.287 195.1C125.864 194.534 126.787 194.529 127.371 195.087L130.133 192.194ZM132.221 194.186L130.133 192.194L127.371 195.087L129.459 197.08L132.221 194.186ZM134.808 196.569L132.195 194.162L129.485 197.104L132.097 199.511L134.808 196.569ZM135.486 196.569C135.295 196.746 135 196.746 134.808 196.569L132.097 199.511C133.823 201.101 136.481 201.098 138.203 199.504L135.486 196.569ZM138.302 193.962L135.486 196.569L138.203 199.504L141.019 196.898L138.302 193.962ZM141.835 194.099C140.897 193.086 139.315 193.025 138.302 193.962L141.019 196.898C140.411 197.461 139.462 197.424 138.899 196.816L141.835 194.099ZM141.698 197.632C142.712 196.694 142.773 195.112 141.835 194.099L138.899 196.816C138.336 196.208 138.373 195.259 138.981 194.696L141.698 197.632ZM138.883 200.238L141.698 197.632L138.981 194.696L136.165 197.303L138.883 200.238ZM131.42 200.247C133.529 202.19 136.778 202.186 138.883 200.238L136.165 197.303C135.591 197.834 134.705 197.835 134.13 197.305L131.42 200.247ZM128.806 197.839L131.42 200.247L134.13 197.305L131.516 194.897L128.806 197.839ZM128.796 197.829L128.802 197.835L131.52 194.901L131.514 194.895L128.796 197.829ZM126.681 195.81L128.774 197.808L131.536 194.915L129.443 192.917L126.681 195.81ZM125.986 195.815C126.179 195.626 126.486 195.624 126.681 195.81L129.443 192.917C127.688 191.242 124.922 191.259 123.188 192.956L125.986 195.815ZM46.2669 195.376L43.8012 192.875L40.9524 195.683L43.4181 198.184L46.2669 195.376ZM43.8017 194.998L43.4386 195.356L46.2464 198.205L46.6095 197.847L43.8017 194.998ZM46.2785 198.186L46.6351 197.821L43.776 195.024L43.4194 195.388L46.2785 198.186ZM48.4595 197.522L46.2477 195.358L43.4502 198.217L45.6621 200.381L48.4595 197.522ZM50.5576 197.522C49.9746 198.092 49.0426 198.092 48.4595 197.522L45.6621 200.381C47.7999 202.472 51.2173 202.472 53.3551 200.381L50.5576 197.522ZM52.7695 195.358L50.5576 197.522L53.3551 200.381L55.5669 198.217L52.7695 195.358ZM52.0393 197.471L52.7387 198.186L55.5977 195.388L54.8984 194.674L52.0393 197.471ZM52.6557 199.666L54.8676 197.502L52.0701 194.643L49.8582 196.807L52.6557 199.666ZM46.3614 199.666C48.1105 201.377 50.9066 201.377 52.6557 199.666L49.8582 196.807C49.6639 196.997 49.3532 196.997 49.1589 196.807L46.3614 199.666ZM44.1559 197.508L46.3614 199.666L49.1589 196.807L46.9534 194.649L44.1559 197.508ZM44.1526 194.652L44.1525 194.652L46.9568 197.505L46.9568 197.505L44.1526 194.652ZM41.6646 194.981L44.1303 197.482L46.9792 194.675L44.5134 192.173L41.6646 194.981ZM39.486 195.025C40.0649 194.388 41.0602 194.367 41.6646 194.981L44.5134 192.173C42.2975 189.924 38.648 189.999 36.5253 192.335L39.486 195.025ZM37.3095 197.421L39.486 195.025L36.5253 192.335L34.3488 194.731L37.3095 197.421ZM37.3107 197.419L37.3185 197.411L34.3399 194.741L34.3321 194.75L37.3107 197.419ZM35.8981 199.032L37.3258 197.402L34.317 194.767L32.8893 196.396L35.8981 199.032ZM29.8677 199.707C31.75 201.075 34.3648 200.782 35.8981 199.032L32.8893 196.396C32.7189 196.591 32.4284 196.623 32.2192 196.471L29.8677 199.707ZM26.1569 197.01L29.8677 199.707L32.2192 196.471L28.5085 193.775L26.1569 197.01ZM28.2522 196.679C27.7651 197.349 26.8271 197.497 26.1569 197.01L28.5085 193.775C27.3916 192.963 25.8281 193.21 25.0164 194.327L28.2522 196.679ZM27.9206 194.584C28.5907 195.071 28.7392 196.009 28.2522 196.679L25.0164 194.327C24.2047 195.444 24.4521 197.008 25.569 197.819L27.9206 194.584ZM31.6313 197.28L27.9206 194.584L25.569 197.819L29.2798 200.516L31.6313 197.28ZM33.6415 197.055C33.1304 197.639 32.2588 197.736 31.6313 197.28L29.2798 200.516C31.5804 202.188 34.7762 201.83 36.6503 199.691L33.6415 197.055ZM35.0661 195.429L33.6415 197.055L36.6503 199.691L38.0749 198.065L35.0661 195.429ZM37.2655 193.008L35.0901 195.402L38.0508 198.092L40.2262 195.697L37.2655 193.008ZM43.8012 192.875C41.9882 191.035 39.0022 191.096 37.2655 193.008L40.2262 195.697C40.4191 195.485 40.7509 195.478 40.9524 195.683L43.8012 192.875Z" fill="#00A975" mask="url(#path-6-inside-1)"/>
<rect x="80.5" y="48.5" width="51" height="5" rx="2.5" stroke="#00A975"/>
<rect x="80.5" y="58.5" width="32" height="5" rx="2.5" stroke="#00A975"/>
<rect x="36" y="158" width="95" height="25" rx="2" fill="#00A975" stroke="#00A975" stroke-width="2"/>
<path d="M66.7617 175V166.469H69.3867C70.1367 166.469 70.8066 166.639 71.3965 166.979C71.9902 167.314 72.4531 167.795 72.7852 168.42C73.1172 169.041 73.2832 169.748 73.2832 170.541V170.934C73.2832 171.727 73.1191 172.432 72.791 173.049C72.4668 173.666 72.0078 174.145 71.4141 174.484C70.8203 174.824 70.1504 174.996 69.4043 175H66.7617ZM68.5195 167.893V173.588H69.3691C70.0566 173.588 70.582 173.363 70.9453 172.914C71.3086 172.465 71.4941 171.822 71.502 170.986V170.535C71.502 169.668 71.3223 169.012 70.9629 168.566C70.6035 168.117 70.0781 167.893 69.3867 167.893H68.5195ZM79.6992 171.303H76.3242V173.588H80.2852V175H74.5664V166.469H80.2734V167.893H76.3242V169.926H79.6992V171.303ZM83.0742 171.994V175H81.3164V166.469H84.6445C85.2852 166.469 85.8477 166.586 86.332 166.82C86.8203 167.055 87.1953 167.389 87.457 167.822C87.7188 168.252 87.8496 168.742 87.8496 169.293C87.8496 170.129 87.5625 170.789 86.9883 171.273C86.418 171.754 85.627 171.994 84.6152 171.994H83.0742ZM83.0742 170.57H84.6445C85.1094 170.57 85.4629 170.461 85.7051 170.242C85.9512 170.023 86.0742 169.711 86.0742 169.305C86.0742 168.887 85.9512 168.549 85.7051 168.291C85.459 168.033 85.1191 167.9 84.6855 167.893H83.0742V170.57ZM96.0703 170.928C96.0703 171.768 95.9219 172.504 95.625 173.137C95.3281 173.77 94.9023 174.258 94.3477 174.602C93.7969 174.945 93.1641 175.117 92.4492 175.117C91.7422 175.117 91.1113 174.947 90.5566 174.607C90.002 174.268 89.5723 173.783 89.2676 173.154C88.9629 172.521 88.8086 171.795 88.8047 170.975V170.553C88.8047 169.713 88.9551 168.975 89.2559 168.338C89.5605 167.697 89.9883 167.207 90.5391 166.867C91.0938 166.523 91.7266 166.352 92.4375 166.352C93.1484 166.352 93.7793 166.523 94.3301 166.867C94.8848 167.207 95.3125 167.697 95.6133 168.338C95.918 168.975 96.0703 169.711 96.0703 170.547V170.928ZM94.2891 170.541C94.2891 169.646 94.1289 168.967 93.8086 168.502C93.4883 168.037 93.0312 167.805 92.4375 167.805C91.8477 167.805 91.3926 168.035 91.0723 168.496C90.752 168.953 90.5898 169.625 90.5859 170.512V170.928C90.5859 171.799 90.7461 172.475 91.0664 172.955C91.3867 173.436 91.8477 173.676 92.4492 173.676C93.0391 173.676 93.4922 173.445 93.8086 172.984C94.125 172.52 94.2852 171.844 94.2891 170.957V170.541ZM101.771 172.762C101.771 172.43 101.654 172.176 101.42 172C101.186 171.82 100.764 171.633 100.154 171.438C99.5449 171.238 99.0625 171.043 98.707 170.852C97.7383 170.328 97.2539 169.623 97.2539 168.736C97.2539 168.275 97.3828 167.865 97.6406 167.506C97.9023 167.143 98.2754 166.859 98.7598 166.656C99.248 166.453 99.7949 166.352 100.4 166.352C101.01 166.352 101.553 166.463 102.029 166.686C102.506 166.904 102.875 167.215 103.137 167.617C103.402 168.02 103.535 168.477 103.535 168.988H101.777C101.777 168.598 101.654 168.295 101.408 168.08C101.162 167.861 100.816 167.752 100.371 167.752C99.9414 167.752 99.6074 167.844 99.3691 168.027C99.1309 168.207 99.0117 168.445 99.0117 168.742C99.0117 169.02 99.1504 169.252 99.4277 169.439C99.709 169.627 100.121 169.803 100.664 169.967C101.664 170.268 102.393 170.641 102.85 171.086C103.307 171.531 103.535 172.086 103.535 172.75C103.535 173.488 103.256 174.068 102.697 174.49C102.139 174.908 101.387 175.117 100.441 175.117C99.7852 175.117 99.1875 174.998 98.6484 174.76C98.1094 174.518 97.6973 174.188 97.4121 173.77C97.1309 173.352 96.9902 172.867 96.9902 172.316H98.7539C98.7539 173.258 99.3164 173.729 100.441 173.729C100.859 173.729 101.186 173.645 101.42 173.477C101.654 173.305 101.771 173.066 101.771 172.762ZM106.6 175H104.842V166.469H106.6V175ZM114.48 167.893H111.867V175H110.109V167.893H107.531V166.469H114.48V167.893Z" fill="white"/>
<path d="M49 170.267L53.1176 174L59 167" stroke="white" stroke-width="2" stroke-linecap="round"/>
<circle cx="31.9636" cy="22.1104" r="1.46363" stroke="#00A975"/>
<circle cx="36.8727" cy="22.1104" r="1.46363" stroke="#00A975"/>
<circle cx="41.7818" cy="22.1104" r="1.46363" stroke="#00A975"/>
<circle cx="46.6908" cy="22.1104" r="1.46363" stroke="#00A975"/>
<circle cx="51.5999" cy="22.1104" r="1.46363" stroke="#00A975"/>
<circle cx="56.509" cy="22.1104" r="1.46363" stroke="#00A975"/>
<circle cx="61.4181" cy="22.1104" r="1.46363" stroke="#00A975"/>
<circle cx="66.3271" cy="22.1104" r="1.46363" stroke="#00A975"/>
<circle cx="71.2362" cy="22.1104" r="1.46363" stroke="#00A975"/>
<circle cx="76.1453" cy="22.1104" r="1.46363" stroke="#00A975"/>
<circle cx="81.0544" cy="22.1104" r="1.46363" stroke="#00A975"/>
<circle cx="85.9456" cy="22.1104" r="1.46363" stroke="#00A975"/>
<circle cx="90.8547" cy="22.1104" r="1.46363" stroke="#00A975"/>
<circle cx="95.7638" cy="22.1104" r="1.46363" stroke="#00A975"/>
<circle cx="100.673" cy="22.1104" r="1.46363" stroke="#00A975"/>
<circle cx="105.582" cy="22.1104" r="1.46363" stroke="#00A975"/>
<circle cx="110.491" cy="22.1104" r="1.46363" stroke="#00A975"/>
<circle cx="115.4" cy="22.1104" r="1.46363" stroke="#00A975"/>
<circle cx="120.309" cy="22.1104" r="1.46363" stroke="#00A975"/>
<circle cx="125.218" cy="22.1104" r="1.46363" stroke="#00A975"/>
<circle cx="130.127" cy="22.1104" r="1.46363" stroke="#00A975"/>
<circle cx="135.036" cy="22.1104" r="1.46363" stroke="#00A975"/>
<circle cx="53.5" cy="56.5" r="16.5" stroke="#00A975" stroke-width="2"/>
<path d="M57.4385 61.4424C57.4385 60.5029 57.1338 59.737 56.5244 59.1445C55.915 58.5436 54.8402 57.9766 53.2998 57.4434C51.387 56.8424 50.0456 56.1315 49.2754 55.3105C48.5052 54.4811 48.1201 53.4105 48.1201 52.0986C48.1201 50.7191 48.5433 49.6019 49.3896 48.7471C50.236 47.8838 51.387 47.3929 52.8428 47.2744V44.71H54.1377V47.2744C55.6273 47.4098 56.7783 47.9684 57.5908 48.9502C58.4118 49.932 58.8223 51.265 58.8223 52.9492H57.3115C57.3115 51.6204 56.9645 50.5667 56.2705 49.7881C55.585 49.001 54.6455 48.6074 53.4521 48.6074C52.2503 48.6074 51.3109 48.9248 50.6338 49.5596C49.9652 50.1859 49.6309 51.0238 49.6309 52.0732C49.6309 53.0889 49.9398 53.8844 50.5576 54.46C51.1755 55.027 52.2249 55.5645 53.7061 56.0723C55.1956 56.5716 56.2747 57.054 56.9434 57.5195C57.6204 57.9766 58.124 58.5225 58.4541 59.1572C58.7926 59.7835 58.9619 60.5368 58.9619 61.417C58.9619 62.805 58.526 63.9264 57.6543 64.7812C56.791 65.6276 55.6019 66.11 54.0869 66.2285V68.6406H52.8047V66.2412C51.1035 66.1312 49.7874 65.598 48.8564 64.6416C47.9255 63.6768 47.46 62.3607 47.46 60.6934H48.9834C48.9834 62.0137 49.3685 63.0505 50.1387 63.8037C50.9089 64.5485 51.9837 64.9209 53.3633 64.9209C54.5651 64.9209 55.5426 64.5993 56.2959 63.9561C57.0576 63.3128 57.4385 62.4749 57.4385 61.4424Z" fill="#00A975"/>
<rect x="49.9231" y="86" width="82.0769" height="52.2308" rx="3" fill="#D5DAE7"/>
<rect x="35.5" y="95.2053" width="81.0769" height="51.2308" rx="2.5" fill="white" stroke="#00A975"/>
<rect x="35.5" y="102.667" width="81.0769" height="15.1667" fill="white" stroke="#00A975"/>
<circle cx="92.8269" cy="131.391" r="6.33974" stroke="#00A975"/>
<circle cx="100.288" cy="131.391" r="6.33974" stroke="#00A975"/>
</svg>
