<svg width="167" height="193" viewBox="0 0 167 193" fill="none" xmlns="http://www.w3.org/2000/svg">
<circle cx="83.5" cy="100.5" r="79.5" stroke="#D5DAE7" stroke-width="8"/>
<rect x="27.5" y="2.5" width="112" height="190" rx="2.5" fill="white" stroke="#00A975"/>
<rect x="28" y="3" width="111" height="189" rx="2" fill="white" stroke="#00A975" stroke-width="2"/>
<path d="M28 15H139V190C139 191.105 138.105 192 137 192H30C28.8954 192 28 191.105 28 190V15Z" fill="white" stroke="#00A975" stroke-width="2"/>
<circle cx="134" cy="9" r="2" fill="#00A975"/>
<circle cx="127" cy="9" r="2" fill="#00A975"/>
<circle cx="119" cy="9" r="2" fill="#00A975"/>
<rect x="35.5" y="60.5" width="96" height="16" rx="2.5" fill="white" stroke="#00A975"/>
<rect x="35.5" y="157.5" width="96" height="26" rx="2.5" fill="#00A975" stroke="#00A975"/>
<rect x="44" y="66" width="63" height="5" rx="2.5" fill="#D5DAE7"/>
<rect x="35.5" y="83.5" width="96" height="16" rx="2.5" fill="white" stroke="#00A975"/>
<rect x="35.5" y="106.5" width="96" height="16" rx="2.5" fill="white" stroke="#00A975"/>
<rect x="35.5" y="129.5" width="96" height="16" rx="2.5" fill="white" stroke="#00A975"/>
<rect x="44" y="89" width="53" height="5" rx="2.5" fill="#D5DAE7"/>
<rect x="44" y="112" width="44" height="5" rx="2.5" fill="#D5DAE7"/>
<rect x="44" y="135" width="79" height="5" rx="2.5" fill="#D5DAE7"/>
<path d="M46.9199 171.877H45.5195V175H43.7617V166.469H46.9316C47.9395 166.469 48.7168 166.693 49.2637 167.143C49.8105 167.592 50.084 168.227 50.084 169.047C50.084 169.629 49.957 170.115 49.7031 170.506C49.4531 170.893 49.0723 171.201 48.5605 171.432L50.4062 174.918V175H48.5195L46.9199 171.877ZM45.5195 170.453H46.9375C47.3789 170.453 47.7207 170.342 47.9629 170.119C48.2051 169.893 48.3262 169.582 48.3262 169.188C48.3262 168.785 48.2109 168.469 47.9805 168.238C47.7539 168.008 47.4043 167.893 46.9316 167.893H45.5195V170.453ZM56.5586 171.303H53.1836V173.588H57.1445V175H51.4258V166.469H57.1328V167.893H53.1836V169.926H56.5586V171.303ZM64.9258 173.922C64.6094 174.301 64.1621 174.596 63.584 174.807C63.0059 175.014 62.3652 175.117 61.6621 175.117C60.9238 175.117 60.2754 174.957 59.7168 174.637C59.1621 174.312 58.7324 173.844 58.4277 173.23C58.127 172.617 57.9727 171.896 57.9648 171.068V170.488C57.9648 169.637 58.1074 168.9 58.3926 168.279C58.6816 167.654 59.0957 167.178 59.6348 166.85C60.1777 166.518 60.8125 166.352 61.5391 166.352C62.5508 166.352 63.3418 166.594 63.9121 167.078C64.4824 167.559 64.8203 168.26 64.9258 169.182H63.2148C63.1367 168.693 62.9629 168.336 62.6934 168.109C62.4277 167.883 62.0605 167.77 61.5918 167.77C60.9941 167.77 60.5391 167.994 60.2266 168.443C59.9141 168.893 59.7559 169.561 59.752 170.447V170.992C59.752 171.887 59.9219 172.562 60.2617 173.02C60.6016 173.477 61.0996 173.705 61.7559 173.705C62.416 173.705 62.8867 173.564 63.168 173.283V171.812H61.5684V170.518H64.9258V173.922ZM68.2246 175H66.4668V166.469H68.2246V175ZM74.2832 172.762C74.2832 172.43 74.166 172.176 73.9316 172C73.6973 171.82 73.2754 171.633 72.666 171.438C72.0566 171.238 71.5742 171.043 71.2188 170.852C70.25 170.328 69.7656 169.623 69.7656 168.736C69.7656 168.275 69.8945 167.865 70.1523 167.506C70.4141 167.143 70.7871 166.859 71.2715 166.656C71.7598 166.453 72.3066 166.352 72.9121 166.352C73.5215 166.352 74.0645 166.463 74.541 166.686C75.0176 166.904 75.3867 167.215 75.6484 167.617C75.9141 168.02 76.0469 168.477 76.0469 168.988H74.2891C74.2891 168.598 74.166 168.295 73.9199 168.08C73.6738 167.861 73.3281 167.752 72.8828 167.752C72.4531 167.752 72.1191 167.844 71.8809 168.027C71.6426 168.207 71.5234 168.445 71.5234 168.742C71.5234 169.02 71.6621 169.252 71.9395 169.439C72.2207 169.627 72.6328 169.803 73.1758 169.967C74.1758 170.268 74.9043 170.641 75.3613 171.086C75.8184 171.531 76.0469 172.086 76.0469 172.75C76.0469 173.488 75.7676 174.068 75.209 174.49C74.6504 174.908 73.8984 175.117 72.9531 175.117C72.2969 175.117 71.6992 174.998 71.1602 174.76C70.6211 174.518 70.209 174.188 69.9238 173.77C69.6426 173.352 69.502 172.867 69.502 172.316H71.2656C71.2656 173.258 71.8281 173.729 72.9531 173.729C73.3711 173.729 73.6973 173.645 73.9316 173.477C74.166 173.305 74.2832 173.066 74.2832 172.762ZM83.6641 167.893H81.0508V175H79.293V167.893H76.7148V166.469H83.6641V167.893ZM87.8301 171.877H86.4297V175H84.6719V166.469H87.8418C88.8496 166.469 89.627 166.693 90.1738 167.143C90.7207 167.592 90.9941 168.227 90.9941 169.047C90.9941 169.629 90.8672 170.115 90.6133 170.506C90.3633 170.893 89.9824 171.201 89.4707 171.432L91.3164 174.918V175H89.4297L87.8301 171.877ZM86.4297 170.453H87.8477C88.2891 170.453 88.6309 170.342 88.873 170.119C89.1152 169.893 89.2363 169.582 89.2363 169.188C89.2363 168.785 89.1211 168.469 88.8906 168.238C88.6641 168.008 88.3145 167.893 87.8418 167.893H86.4297V170.453ZM97.1523 173.242H94.0703L93.4844 175H91.6152L94.791 166.469H96.4199L99.6133 175H97.7441L97.1523 173.242ZM94.5449 171.818H96.6777L95.6055 168.625L94.5449 171.818ZM106.129 167.893H103.516V175H101.758V167.893H99.1797V166.469H106.129V167.893ZM109.006 175H107.248V166.469H109.006V175ZM117.648 170.928C117.648 171.768 117.5 172.504 117.203 173.137C116.906 173.77 116.48 174.258 115.926 174.602C115.375 174.945 114.742 175.117 114.027 175.117C113.32 175.117 112.689 174.947 112.135 174.607C111.58 174.268 111.15 173.783 110.846 173.154C110.541 172.521 110.387 171.795 110.383 170.975V170.553C110.383 169.713 110.533 168.975 110.834 168.338C111.139 167.697 111.566 167.207 112.117 166.867C112.672 166.523 113.305 166.352 114.016 166.352C114.727 166.352 115.357 166.523 115.908 166.867C116.463 167.207 116.891 167.697 117.191 168.338C117.496 168.975 117.648 169.711 117.648 170.547V170.928ZM115.867 170.541C115.867 169.646 115.707 168.967 115.387 168.502C115.066 168.037 114.609 167.805 114.016 167.805C113.426 167.805 112.971 168.035 112.65 168.496C112.33 168.953 112.168 169.625 112.164 170.512V170.928C112.164 171.799 112.324 172.475 112.645 172.955C112.965 173.436 113.426 173.676 114.027 173.676C114.617 173.676 115.07 173.445 115.387 172.984C115.703 172.52 115.863 171.844 115.867 170.957V170.541ZM125.863 175H124.105L120.684 169.387V175H118.926V166.469H120.684L124.111 172.094V166.469H125.863V175Z" fill="white"/>
<rect x="35.5" y="29.5" width="62" height="5" rx="2.5" stroke="#00A975"/>
<rect x="35.5" y="39.5" width="39" height="5" rx="2.5" stroke="#00A975"/>
<path d="M7.40723 17H5.77246V6.16309L2.49414 7.36719V5.89062L7.15234 4.1416H7.40723V17Z" fill="#00A975"/>
</svg>
