<?xml version="1.0" encoding="utf-8"?>
<!-- Generator: Adobe Illustrator 17.0.0, SVG Export Plug-In . SVG Version: 6.00 Build 0)  -->
<!DOCTYPE svg PUBLIC "-//W3C//DTD SVG 1.1//EN" "http://www.w3.org/Graphics/SVG/1.1/DTD/svg11.dtd">
<svg version="1.1" id="Layer_1" xmlns="http://www.w3.org/2000/svg" xmlns:xlink="http://www.w3.org/1999/xlink" x="0px" y="0px"
	 width="600px" height="600px" viewBox="0 -100 600 600" enable-background="new 0 -100 600 600" xml:space="preserve">
<g>
	<g>
		<path fill="#0074B6" d="M299.929-25.132c25.751,0,50.04,6.025,71.552,16.604c3.422,1.61,6.844,3.403,10.266,5.38l-14.994,13.337
			L344.1-13.08l-38.14,34.039L283.304-3.788l-71.059,64.02l45.637,50.176l-17.937,15.64l44.823,50.313l-17.765,15.635l64.053,71.378
			l38.144-35.046l32.921,37.669c-6.684,5.012-13.692,9.749-21.676,14.162c-23.797,13.523-51.176,21.342-80.516,21.342
			c-89.973,0-163.315-73.311-163.315-163.27c0-89.909,73.345-163.36,163.32-163.36L299.929-25.132z"/>
		<polygon fill="#0074B6" points="270.264,127.835 309.057,92.975 344.1,131.745 305.144,166.745 		"/>
		<polygon fill="#0074B6" points="297.796,194.943 336.587,160.082 371.629,198.852 332.839,233.897 		"/>
		<polygon fill="#0074B6" points="242.384,61.514 281.175,26.653 316.217,65.423 277.427,100.465 		"/>
		<polygon fill="#0074B6" points="313.608,42.802 342.777,16.542 369.02,45.747 339.851,71.97 		"/>
		<polygon fill="#0074B6" points="365.446,162.837 394.619,136.622 420.86,165.78 391.683,191.995 		"/>
		<polygon fill="#0074B6" points="391.038,221.646 420.21,195.43 446.451,224.585 417.269,250.798 		"/>
		<polygon fill="#0074B6" points="402.778,86.756 422.339,69.326 439.778,88.735 420.384,106.311 		"/>
		<polygon fill="#0074B6" points="377.991,29.082 397.39,11.65 414.991,31.059 395.43,48.626 		"/>
		<polygon fill="#0074B6" points="427.697,144.629 447.095,127.015 464.535,146.422 445.135,163.989 		"/>
		<polygon fill="#0074B6" points="340.507,101.242 369.685,75.026 395.927,104.182 366.744,130.399 		"/>
	</g>
	<g>
		<polygon fill="#0074B6" points="55.866,386.909 54.984,386.909 38.342,449.794 24.675,449.794 4.285,360.473 18.393,360.473 
			32.5,427.122 33.387,427.122 49.81,360.473 61.05,360.473 78.573,427.122 79.453,427.122 92.24,360.473 107.01,360.473 
			86.618,449.794 72.949,449.794 		"/>
		<path fill="#0074B6" d="M164.765,415.99c0-20.495-9.699-30.727-25.466-30.727c-18.847,0-28.656,13.872-28.656,33.029
			c0,19.843,8.707,32.935,29.979,32.935c9.038,0,16.643-2.519,22.266-5.723v-9.58v-0.001c-6.945,4.2-13.227,6.5-20.06,6.5
			c-13.007,0-19.18-6.63-19.18-21.8h41.117V415.99z M123.978,412.227c1.323-12.658,7.275-18.505,14.99-18.505
			c6.724,0,13.228,5.287,13.778,18.505H123.978z"/>
		<path fill="#0074B6" d="M206.422,385.252c-6.834,0-13.337,2.644-17.084,4.604v-35.889l-13.116,3.17v87.922
			c7.604,4.074,17.965,6.158,24.578,6.158c18.297,0,29.649-11.446,29.649-35.019C230.449,396.043,221.962,385.252,206.422,385.252z
			 M200.801,442.414c-3.086,0-7.495-0.217-11.573-1.99v-41.207c5.07-2.738,8.708-4.168,13.778-4.168
			c8.376,0,14.218,5.163,14.218,21.148C217.224,436.693,210.171,442.414,200.801,442.414z"/>
		<polygon fill="#0074B6" points="287.756,430.845 288.418,430.845 315.42,360.464 331.072,360.464 331.072,449.784 
			317.402,449.784 317.402,385.003 316.302,385.003 290.619,449.784 282.464,449.784 256.785,386.464 255.681,386.464 
			255.681,449.784 244.329,449.784 244.329,360.464 259.539,360.464 		"/>
		<path fill="#0074B6" d="M373.62,385.252c-16.643,0-28.656,10.886-28.656,33.029c0,21.49,11.463,32.935,28.656,32.935
			c17.305,0,28.769-11.446,28.769-32.935C402.389,396.136,390.264,385.252,373.62,385.252z M389.159,418.286
			c0,17.2-6.502,24.13-15.54,24.13c-8.926,0-15.43-6.935-15.43-24.135c0-17.075,7.163-24.228,15.43-24.228
			c8.596,0,15.54,7.154,15.54,24.228V418.286z"/>
		<path fill="#0074B6" d="M414.409,394.611c5.62-3.42,17.634-9.36,32.074-9.36c15.207,0,20.83,5.94,20.83,18.94v45.592h-13.117
			v-42.739c0-9.92-4.85-11.695-11.352-11.695c-4.96,0-11.464,2.21-15.32,4.54v49.886H414.41L414.409,394.611z"/>
		<path fill="#0074B6" d="M533.115,415.99c0-20.495-9.7-30.727-25.462-30.727c-18.848,0-28.545,13.872-28.545,33.029
			c0,19.843,8.597,32.935,29.869,32.935c9.038,0,16.643-2.519,22.263-5.723v-9.58v-0.001c-6.941,4.2-13.224,6.5-20.057,6.5
			c-13.006,0-19.18-6.63-19.18-21.8h41.111V415.99z M492.333,412.227c1.324-12.658,7.274-18.505,14.99-18.505
			c6.833,0,13.227,5.287,13.887,18.505H492.333z"/>
		<path fill="#0074B6" d="M582.156,387.336h13.56l-22.815,63.009c-6.394,17.418-14,26.561-28.547,26.561V466.55
			c8.596,0,13.887-6.843,16.863-16.204l-24.138-63.009h13.88l16.09,46.369h0.774L582.156,387.336z"/>
	</g>
</g>
</svg>
